<?xml version="1.0" encoding="UTF-8"?>
<svg width="50px" height="50px" viewBox="0 0 50 50" version="1.1" xmlns="http://www.w3.org/2000/svg" xmlns:xlink="http://www.w3.org/1999/xlink">
    <!-- Generator: Sketch 55.1 (78136) - https://sketchapp.com -->
    <title>Combined Shape</title>
    <desc>Created with Sketch.</desc>
    <g id="Symbols" stroke="none" stroke-width="1" fill="none" fill-rule="evenodd">
        <g id="icon/incomplete-copy-2" fill="#545454" fill-rule="nonzero">
            <path d="M25.0050588,-5.97728048e-14 C31.6349426,-5.97728048e-14 37.993215,2.63403261 42.6808106,7.32250848 C47.3684063,12.0109843 50.0012446,18.3697512 50,24.9996348 C50,35.1114702 43.9085259,44.2275408 34.5662264,48.0967341 C25.2239269,51.9659273 14.4707702,49.8262042 7.32129407,42.6753856 C0.171817988,35.524567 -1.96588587,24.7710087 1.90506158,15.429436 C5.77600903,6.08786335 14.8932235,-0.00189813587 25.0050588,-5.97728048e-14 Z M25.0046541,2.00000041 C15.7017656,1.99825412 7.31392831,7.60083469 3.75265665,16.1950816 C0.191384996,24.7893284 2.15807255,34.682602 8.73559055,41.2613551 C15.3131085,47.8401083 25.2060128,49.8086535 33.8009283,46.2489957 C42.3958439,42.689338 48,34.302553 48,24.9996644 C48.001145,18.9001715 45.5789338,13.050106 41.2663458,8.73670821 C36.9537578,4.42331041 31.1041472,2.00000041 25.0046541,2.00000041 Z" id="Combined-Shape"></path>
        </g>
    </g>
</svg>